<?xml version="1.0" encoding="utf-8"?>
<!-- Generator: Adobe Illustrator 19.0.0, SVG Export Plug-In . SVG Version: 6.00 Build 0)  -->
<svg version="1.2" baseProfile="tiny" id="Layer_1" xmlns="http://www.w3.org/2000/svg" xmlns:xlink="http://www.w3.org/1999/xlink"
	 x="0px" y="0px" viewBox="0 0 500 500" xml:space="preserve">
<path id="XMLID_391_" fill="#FFFFFF" stroke="#000000" stroke-width="20" stroke-miterlimit="10" d="M438,406.2H62
	c-6.6,0-12-5.4-12-12v-176c0-6.6,5.4-12,12-12h376c6.6,0,12,5.4,12,12v176C450,400.8,444.6,406.2,438,406.2z"/>
<polygon id="XMLID_392_" stroke="#000000" stroke-width="20" stroke-miterlimit="10" points="450,206.2 50,206.2 50,172.7 
	450,171.1 "/>
<polygon id="XMLID_393_" fill="#FFFFFF" points="206.8,172.4 192.8,202.2 237.5,202.2 250.7,172.4 "/>
<polygon id="XMLID_394_" fill="#FFFFFF" points="269.8,172.1 255.8,201.9 300.5,201.9 313.7,172.1 "/>
<polygon id="XMLID_395_" fill="#FFFFFF" points="267.8,250.3 253.8,280.1 298.5,280.1 311.6,250.3 "/>
<polygon id="XMLID_396_" fill="#FFFFFF" points="331.8,172.7 317.8,202.5 362.5,202.5 375.7,172.7 "/>
<polygon id="XMLID_397_" fill="#FFFFFF" points="392.8,172.7 378.8,202.5 423.5,202.5 436.7,172.7 "/>
<polygon id="XMLID_398_" stroke="#000000" stroke-width="20" stroke-miterlimit="10" points="436.2,96 50.4,201.6 50,165.3 
	426.9,62.1 "/>
<polygon id="XMLID_399_" fill="#FFFFFF" points="192.7,127.6 187.1,160 230.2,148.2 235,116 "/>
<polygon id="XMLID_400_" fill="#FFFFFF" points="253.4,110.7 247.8,143.1 290.9,131.3 295.7,99.1 "/>
<polygon id="XMLID_401_" fill="#FFFFFF" points="313.4,94.9 307.7,127.4 350.9,115.6 355.7,83.3 "/>
<polygon id="XMLID_402_" fill="#FFFFFF" points="372.2,78.8 366.6,111.3 409.7,99.4 414.5,67.2 "/>
<polygon id="XMLID_403_" points="217.5,307.7 217.5,264.4 255,286 292.5,307.7 255,329.3 217.5,351 "/>
</svg>
